<svg width="670" height="607" viewBox="0 0 670 607" fill="none" xmlns="http://www.w3.org/2000/svg">
<g filter="url(#filter0_d)">
<rect x="20" y="10" width="570" height="507" rx="20" fill="#6454DD"/>
</g>
<g filter="url(#filter1_d)">
<rect x="50" y="33" width="198" height="135" rx="20" fill="#ABA1F6"/>
</g>
<g filter="url(#filter2_d)">
<rect width="239" height="135" rx="20" transform="matrix(-1 0 0 1 507 354)" fill="#ABA1F6"/>
</g>
<g filter="url(#filter3_d)">
<rect x="50" y="194" width="294" height="135" rx="20" fill="#ABA1F6"/>
</g>
<g filter="url(#filter4_d)">
<rect x="268" y="33" width="198" height="135" rx="20" fill="#ABA1F6"/>
</g>
<g filter="url(#filter5_d)">
<rect width="198" height="135" rx="20" transform="matrix(-1 0 0 1 248 354)" fill="#ABA1F6"/>
</g>
<g filter="url(#filter6_d)">
<rect x="367" y="194" width="198" height="135" rx="20" fill="#ABA1F6"/>
</g>
<rect x="70" y="51" width="108" height="15" rx="7.5" fill="#FF7E92"/>
<rect width="138" height="15" rx="7.5" transform="matrix(-1 0 0 1 492 372)" fill="#FF7E92"/>
<rect x="70" y="212" width="167" height="15" rx="7.5" fill="white"/>
<rect x="285" y="51" width="108" height="15" rx="7.5" fill="#FF7E92"/>
<rect width="108" height="15" rx="7.5" transform="matrix(-1 0 0 1 231 372)" fill="#FF7E92"/>
<rect x="384" y="212" width="108" height="15" rx="7.5" fill="#FF7E92"/>
<rect width="108" height="15" rx="7.5" transform="matrix(-1 0 0 1 233 135)" fill="#FF7E92"/>
<rect x="283" y="456" width="138" height="15" rx="7.5" fill="#FF7E92"/>
<rect x="70" y="93" width="163" height="15" rx="7.5" fill="white"/>
<rect width="209" height="15" rx="7.5" transform="matrix(-1 0 0 1 492 414)" fill="white"/>
<rect x="70" y="254" width="252" height="57" rx="7.5" fill="#5ACFC7"/>
<rect x="285" y="93" width="163" height="57" rx="7.5" fill="white"/>
<rect width="163" height="57" rx="7.5" transform="matrix(-1 0 0 1 231 414)" fill="white"/>
<rect x="384" y="254" width="163" height="57" rx="7.5" fill="#FFB0B8"/>
<rect x="183" y="51" width="50" height="15" rx="7.5" fill="white"/>
<rect width="50" height="15" rx="7.5" transform="matrix(-1 0 0 1 333 372)" fill="white"/>
<rect x="245" y="212" width="77" height="15" rx="7.5" fill="#FF7E92"/>
<rect x="398" y="51" width="50" height="15" rx="7.5" fill="white"/>
<rect width="50" height="15" rx="7.5" transform="matrix(-1 0 0 1 118 372)" fill="white"/>
<rect x="497" y="212" width="50" height="15" rx="7.5" fill="white"/>
<rect width="50" height="15" rx="7.5" transform="matrix(-1 0 0 1 120 135)" fill="white"/>
<rect x="428" y="456" width="64" height="15" rx="7.5" fill="white"/>
<defs>
<filter id="filter0_d" x="0" y="0" width="670" height="607" filterUnits="userSpaceOnUse" color-interpolation-filters="sRGB">
<feFlood flood-opacity="0" result="BackgroundImageFix"/>
<feColorMatrix in="SourceAlpha" type="matrix" values="0 0 0 0 0 0 0 0 0 0 0 0 0 0 0 0 0 0 127 0" result="hardAlpha"/>
<feOffset dx="30" dy="40"/>
<feGaussianBlur stdDeviation="25"/>
<feComposite in2="hardAlpha" operator="out"/>
<feColorMatrix type="matrix" values="0 0 0 0 0.392157 0 0 0 0 0.329412 0 0 0 0 0.866667 0 0 0 0.6 0"/>
<feBlend mode="normal" in2="BackgroundImageFix" result="effect1_dropShadow"/>
<feBlend mode="normal" in="SourceGraphic" in2="effect1_dropShadow" result="shape"/>
</filter>
<filter id="filter1_d" x="30" y="23" width="298" height="235" filterUnits="userSpaceOnUse" color-interpolation-filters="sRGB">
<feFlood flood-opacity="0" result="BackgroundImageFix"/>
<feColorMatrix in="SourceAlpha" type="matrix" values="0 0 0 0 0 0 0 0 0 0 0 0 0 0 0 0 0 0 127 0" result="hardAlpha"/>
<feOffset dx="30" dy="40"/>
<feGaussianBlur stdDeviation="25"/>
<feComposite in2="hardAlpha" operator="out"/>
<feColorMatrix type="matrix" values="0 0 0 0 0.392157 0 0 0 0 0.329412 0 0 0 0 0.866667 0 0 0 0.6 0"/>
<feBlend mode="normal" in2="BackgroundImageFix" result="effect1_dropShadow"/>
<feBlend mode="normal" in="SourceGraphic" in2="effect1_dropShadow" result="shape"/>
</filter>
<filter id="filter2_d" x="248" y="344" width="339" height="235" filterUnits="userSpaceOnUse" color-interpolation-filters="sRGB">
<feFlood flood-opacity="0" result="BackgroundImageFix"/>
<feColorMatrix in="SourceAlpha" type="matrix" values="0 0 0 0 0 0 0 0 0 0 0 0 0 0 0 0 0 0 127 0" result="hardAlpha"/>
<feOffset dx="30" dy="40"/>
<feGaussianBlur stdDeviation="25"/>
<feComposite in2="hardAlpha" operator="out"/>
<feColorMatrix type="matrix" values="0 0 0 0 0.392157 0 0 0 0 0.329412 0 0 0 0 0.866667 0 0 0 0.6 0"/>
<feBlend mode="normal" in2="BackgroundImageFix" result="effect1_dropShadow"/>
<feBlend mode="normal" in="SourceGraphic" in2="effect1_dropShadow" result="shape"/>
</filter>
<filter id="filter3_d" x="30" y="184" width="394" height="235" filterUnits="userSpaceOnUse" color-interpolation-filters="sRGB">
<feFlood flood-opacity="0" result="BackgroundImageFix"/>
<feColorMatrix in="SourceAlpha" type="matrix" values="0 0 0 0 0 0 0 0 0 0 0 0 0 0 0 0 0 0 127 0" result="hardAlpha"/>
<feOffset dx="30" dy="40"/>
<feGaussianBlur stdDeviation="25"/>
<feComposite in2="hardAlpha" operator="out"/>
<feColorMatrix type="matrix" values="0 0 0 0 0.392157 0 0 0 0 0.329412 0 0 0 0 0.866667 0 0 0 0.6 0"/>
<feBlend mode="normal" in2="BackgroundImageFix" result="effect1_dropShadow"/>
<feBlend mode="normal" in="SourceGraphic" in2="effect1_dropShadow" result="shape"/>
</filter>
<filter id="filter4_d" x="248" y="23" width="298" height="235" filterUnits="userSpaceOnUse" color-interpolation-filters="sRGB">
<feFlood flood-opacity="0" result="BackgroundImageFix"/>
<feColorMatrix in="SourceAlpha" type="matrix" values="0 0 0 0 0 0 0 0 0 0 0 0 0 0 0 0 0 0 127 0" result="hardAlpha"/>
<feOffset dx="30" dy="40"/>
<feGaussianBlur stdDeviation="25"/>
<feComposite in2="hardAlpha" operator="out"/>
<feColorMatrix type="matrix" values="0 0 0 0 0.392157 0 0 0 0 0.329412 0 0 0 0 0.866667 0 0 0 0.6 0"/>
<feBlend mode="normal" in2="BackgroundImageFix" result="effect1_dropShadow"/>
<feBlend mode="normal" in="SourceGraphic" in2="effect1_dropShadow" result="shape"/>
</filter>
<filter id="filter5_d" x="30" y="344" width="298" height="235" filterUnits="userSpaceOnUse" color-interpolation-filters="sRGB">
<feFlood flood-opacity="0" result="BackgroundImageFix"/>
<feColorMatrix in="SourceAlpha" type="matrix" values="0 0 0 0 0 0 0 0 0 0 0 0 0 0 0 0 0 0 127 0" result="hardAlpha"/>
<feOffset dx="30" dy="40"/>
<feGaussianBlur stdDeviation="25"/>
<feComposite in2="hardAlpha" operator="out"/>
<feColorMatrix type="matrix" values="0 0 0 0 0.392157 0 0 0 0 0.329412 0 0 0 0 0.866667 0 0 0 0.6 0"/>
<feBlend mode="normal" in2="BackgroundImageFix" result="effect1_dropShadow"/>
<feBlend mode="normal" in="SourceGraphic" in2="effect1_dropShadow" result="shape"/>
</filter>
<filter id="filter6_d" x="347" y="184" width="298" height="235" filterUnits="userSpaceOnUse" color-interpolation-filters="sRGB">
<feFlood flood-opacity="0" result="BackgroundImageFix"/>
<feColorMatrix in="SourceAlpha" type="matrix" values="0 0 0 0 0 0 0 0 0 0 0 0 0 0 0 0 0 0 127 0" result="hardAlpha"/>
<feOffset dx="30" dy="40"/>
<feGaussianBlur stdDeviation="25"/>
<feComposite in2="hardAlpha" operator="out"/>
<feColorMatrix type="matrix" values="0 0 0 0 0.392157 0 0 0 0 0.329412 0 0 0 0 0.866667 0 0 0 0.6 0"/>
<feBlend mode="normal" in2="BackgroundImageFix" result="effect1_dropShadow"/>
<feBlend mode="normal" in="SourceGraphic" in2="effect1_dropShadow" result="shape"/>
</filter>
</defs>
</svg>
