<svg width="640" height="611" viewBox="0 0 640 611" fill="none" xmlns="http://www.w3.org/2000/svg">
<g filter="url(#filter0_d)">
<rect x="20" y="10" width="540" height="511" rx="37" fill="#FF7E92"/>
</g>
<rect x="196.5" y="106.5" width="166" height="321.867" rx="12.5" stroke="white" stroke-width="5"/>
<path d="M243.938 107.027H313.549V112.106C313.549 114.315 311.758 116.106 309.549 116.106H247.938C245.729 116.106 243.938 114.315 243.938 112.106V107.027Z" fill="white"/>
<line x1="243.938" y1="418.774" x2="310.523" y2="418.774" stroke="white" stroke-width="3"/>
<path d="M298.88 232.001C311.623 232.061 321.938 242.141 322 254.593C322 277.407 279.5 300 279.5 300C279.5 300 237 277.075 237 254.593C237 242.116 247.351 232.001 260.12 232.001C267.936 231.941 275.244 235.783 279.5 242.189C283.785 235.814 291.074 231.982 298.88 232.001Z" fill="white"/>
<rect x="386.977" y="160.934" width="109.046" height="213" rx="12.5" stroke="white" stroke-width="5"/>
<path d="M417.782 160.452H464.208V162.508C464.208 164.717 462.417 166.508 460.208 166.508H421.782C419.573 166.508 417.782 164.717 417.782 162.508V160.452Z" fill="white"/>
<line x1="417.782" y1="367.869" x2="462.19" y2="367.869" stroke="white" stroke-width="3"/>
<rect x="63.5" y="160.934" width="109.046" height="213" rx="12.5" stroke="white" stroke-width="5"/>
<path d="M94.3057 160.452H140.732V162.508C140.732 164.717 138.941 166.508 136.732 166.508H98.3057C96.0965 166.508 94.3057 164.717 94.3057 162.508V160.452Z" fill="white"/>
<line x1="94.3057" y1="367.869" x2="138.713" y2="367.869" stroke="white" stroke-width="3"/>
<defs>
<filter id="filter0_d" x="0" y="0" width="640" height="611" filterUnits="userSpaceOnUse" color-interpolation-filters="sRGB">
<feFlood flood-opacity="0" result="BackgroundImageFix"/>
<feColorMatrix in="SourceAlpha" type="matrix" values="0 0 0 0 0 0 0 0 0 0 0 0 0 0 0 0 0 0 127 0" result="hardAlpha"/>
<feOffset dx="30" dy="40"/>
<feGaussianBlur stdDeviation="25"/>
<feComposite in2="hardAlpha" operator="out"/>
<feColorMatrix type="matrix" values="0 0 0 0 1 0 0 0 0 0.494118 0 0 0 0 0.572549 0 0 0 0.6 0"/>
<feBlend mode="normal" in2="BackgroundImageFix" result="effect1_dropShadow"/>
<feBlend mode="normal" in="SourceGraphic" in2="effect1_dropShadow" result="shape"/>
</filter>
</defs>
</svg>
