<svg width="39" height="39" viewBox="0 0 39 39" fill="none" xmlns="http://www.w3.org/2000/svg">
<path fill-rule="evenodd" clip-rule="evenodd" d="M8.5945 9.94971H29.6729C30.5566 9.94971 31.2729 10.6661 31.2729 11.5497C31.2729 11.5515 31.2729 11.5533 31.2729 11.555L31.2249 25.9212C31.222 26.8028 30.5065 27.5159 29.625 27.5159H8.57852C7.69486 27.5159 6.97852 26.7995 6.97852 25.9159C6.97852 25.9153 6.97852 25.9147 6.97852 25.9141L6.99451 11.5479C6.99549 10.665 7.71154 9.94971 8.5945 9.94971Z" stroke="white" stroke-width="2.4" stroke-linejoin="round"/>
<path d="M18.4418 21.6694C18.9463 22.0991 19.7037 22.0385 20.1334 21.534C20.5632 21.0295 20.5025 20.2721 19.998 19.8423L18.4418 21.6694ZM8.19945 9.79225C7.69493 9.3625 6.93756 9.42311 6.5078 9.92763C6.07805 10.4321 6.13866 11.1895 6.64318 11.6193L8.19945 9.79225ZM31.7403 11.6174C32.2438 11.1864 32.3026 10.4289 31.8716 9.92539C31.4406 9.42193 30.683 9.36318 30.1796 9.79416L31.7403 11.6174ZM18.4395 19.8443C17.9361 20.2752 17.8773 21.0328 18.3083 21.5362C18.7393 22.0397 19.4968 22.0984 20.0003 21.6675L18.4395 19.8443ZM19.998 19.8423C16.0652 16.4923 13.1155 13.9798 11.1491 12.3048C10.1659 11.4673 9.42847 10.8391 8.93686 10.4204C8.69106 10.211 8.5067 10.054 8.3838 9.94928C8.32236 9.89695 8.27625 9.85767 8.24554 9.83151C8.23016 9.81841 8.21868 9.80863 8.21097 9.80207C8.20709 9.79876 8.2043 9.79638 8.20233 9.79471C8.20131 9.79384 8.20071 9.79332 8.20017 9.79287C8.19982 9.79256 8.19987 9.79261 8.19963 9.79241C8.19957 9.79235 8.19953 9.79232 8.1995 9.79229C8.19947 9.79226 8.19945 9.79225 7.42132 10.7058C6.64318 11.6193 6.6432 11.6193 6.64323 11.6193C6.64326 11.6193 6.6433 11.6194 6.64336 11.6194C6.64337 11.6194 6.64378 11.6198 6.6439 11.6199C6.64433 11.6203 6.64516 11.621 6.64606 11.6217C6.64794 11.6233 6.65091 11.6259 6.6547 11.6291C6.66236 11.6356 6.67393 11.6455 6.68927 11.6585C6.72001 11.6847 6.76607 11.724 6.82753 11.7763C6.95044 11.881 7.13478 12.038 7.38059 12.2474C7.8722 12.6662 8.60961 13.2943 9.59282 14.1318C11.5593 15.8068 14.5089 18.3193 18.4418 21.6694L19.998 19.8423ZM30.96 10.7058C30.1796 9.79416 30.1796 9.79418 30.1795 9.7942C30.1795 9.79423 30.1795 9.79427 30.1794 9.79432C30.1794 9.79436 30.179 9.79463 30.1789 9.79478C30.1784 9.79522 30.1777 9.79577 30.1767 9.79662C30.1748 9.79825 30.1719 9.80071 30.1681 9.80398C30.1605 9.81052 30.149 9.82034 30.1337 9.83342C30.1031 9.8596 30.0573 9.89885 29.9961 9.9512C29.8739 10.0559 29.6904 10.2129 29.4458 10.4223C28.9567 10.841 28.2229 11.4692 27.2446 12.3067C25.2879 13.9817 22.3529 16.4942 18.4395 19.8443L20.0003 21.6675C23.9136 18.3174 26.8486 15.8049 28.8053 14.1299C29.7837 13.2924 30.5174 12.6642 31.0066 12.2455C31.2512 12.0361 31.4346 11.8791 31.5569 11.7744C31.618 11.7221 31.6639 11.6828 31.6945 11.6566C31.7098 11.6435 31.7212 11.6337 31.7289 11.6272C31.7327 11.6239 31.7356 11.6215 31.7375 11.6198C31.7384 11.619 31.7392 11.6184 31.7396 11.618C31.7399 11.6177 31.74 11.6177 31.7402 11.6175C31.7402 11.6175 31.7403 11.6174 31.7403 11.6174C31.7403 11.6174 31.7403 11.6174 30.96 10.7058Z" fill="white"/>
</svg>
