<svg width="47" height="47" viewBox="0 0 47 47" fill="none" xmlns="http://www.w3.org/2000/svg">
<path fill-rule="evenodd" clip-rule="evenodd" d="M16.2858 0H30.7142C43.8821 0 47 3.11785 47 16.2858V30.7142C47 43.8821 43.8821 47 30.7142 47H16.2858C3.11785 47 0 43.8821 0 30.7142V16.2858C0 3.11785 3.11785 0 16.2858 0Z" fill="#4680C2"/>
<path fill-rule="evenodd" clip-rule="evenodd" d="M38.4145 15.0021C38.6467 14.2724 38.4145 13.7417 37.3863 13.7417H33.9699C33.1076 13.7417 32.7095 14.206 32.4774 14.7036C32.4774 14.7036 30.7194 18.9492 28.2649 21.7021C27.4688 22.4982 27.104 22.7635 26.6729 22.7635C26.4406 22.7635 26.1422 22.4982 26.1422 21.7685V14.9689C26.1422 14.1065 25.8768 13.7085 25.147 13.7085H19.7738C19.243 13.7085 18.9114 14.1065 18.9114 14.5046C18.9114 15.3338 20.1386 15.5328 20.2713 17.8546V22.8962C20.2713 23.9908 20.0723 24.1898 19.6411 24.1898C18.4802 24.1898 15.6609 19.911 13.9693 15.0353C13.6375 14.0733 13.3059 13.7085 12.4435 13.7085H8.9939C7.99886 13.7085 7.83301 14.1729 7.83301 14.6704C7.83301 15.566 8.9939 20.0769 13.2395 26.0473C16.0589 30.127 20.0723 32.3161 23.6877 32.3161C25.8768 32.3161 26.1422 31.8186 26.1422 30.9894V27.9048C26.1422 26.9096 26.3411 26.7439 27.0377 26.7439C27.5352 26.7439 28.4308 27.0091 30.454 28.9661C32.7758 31.2879 33.1738 32.3493 34.4674 32.3493H37.8838C38.8789 32.3493 39.3433 31.8518 39.0779 30.8898C38.7794 29.928 37.6517 28.5349 36.1922 26.8764C35.3962 25.9478 34.2021 24.9196 33.8372 24.422C33.3397 23.7587 33.4724 23.4933 33.8372 22.8962C33.8041 22.8962 37.9833 16.9922 38.4145 15.0021Z" fill="white"/>
</svg>
