<svg width="14" height="14" viewBox="0 0 14 14" fill="none" xmlns="http://www.w3.org/2000/svg">
<path fill-rule="evenodd" clip-rule="evenodd" d="M12.8768 1.12512C11.3961 -0.356635 9.0021 -0.377455 7.49598 1.07832L6.38902 2.1796L6.33563 2.23976C6.13976 2.49034 6.15644 2.85355 6.38639 3.08502C6.63549 3.33577 7.04055 3.33695 7.29111 3.08766L8.39146 1.99286L8.49673 1.89662C9.49827 1.03094 11.019 1.07677 11.972 2.03054C12.9591 3.01837 12.973 4.61564 12.0032 5.62049L10.0918 7.53324L9.98415 7.63495C9.46979 8.09358 8.79032 8.32673 8.09912 8.27719C7.35855 8.22411 6.67753 7.85175 6.2328 7.25675C6.02117 6.9736 5.62026 6.91576 5.33734 7.12756C5.05441 7.33935 4.99662 7.74057 5.20825 8.02372C5.87533 8.91622 6.89687 9.47476 8.00772 9.55438C9.11858 9.634 10.2092 9.22684 10.9966 8.43858L12.9157 6.51797L13.0281 6.39656C14.3761 4.87729 14.3184 2.56787 12.8768 1.12512ZM5.99228 4.44562C4.88142 4.366 3.79077 4.77316 3.00341 5.56142L1.08428 7.48203L0.971903 7.60344C-0.376065 9.12271 -0.318403 11.4321 1.12324 12.8749C2.60385 14.3566 4.9979 14.3775 6.50402 12.9217L7.6059 11.8191L7.65912 11.7588C7.85425 11.5076 7.83651 11.1445 7.6059 10.9137C7.35607 10.6636 6.95101 10.6636 6.70117 10.9137L5.60722 12.0085L5.50208 12.1046C4.50173 12.9691 2.98101 12.9232 2.02797 11.9695C1.0409 10.9816 1.02703 9.38436 1.9968 8.37951L3.90822 6.46676L4.01585 6.36505C4.53021 5.90642 5.20968 5.67327 5.90088 5.72281C6.64145 5.77589 7.32247 6.14825 7.7672 6.74325C7.97883 7.0264 8.37974 7.08424 8.66266 6.87244C8.94559 6.66065 9.00338 6.25943 8.79175 5.97628C8.12467 5.08378 7.10313 4.52524 5.99228 4.44562Z" fill="#08B9BD"/>
</svg>
