<svg width="47" height="47" viewBox="0 0 47 47" fill="none" xmlns="http://www.w3.org/2000/svg">
<g clip-path="url(#clip0)">
<path d="M2.93693 3.19792C-0.756483 7.03429 -0.000566021 11.1096 -0.000566021 23.4902C-0.000566021 33.7714 -1.7944 44.0781 7.59385 46.5045C10.5255 47.2585 36.5008 47.2585 39.4285 46.5006C43.3373 45.4921 46.5177 42.3215 46.9524 36.7931C47.0131 36.0215 47.0131 10.9725 46.9505 10.1853C46.4883 4.29654 42.8634 0.902751 38.0871 0.215375C36.9923 0.0567503 36.773 0.0097503 31.1565 -4.13656e-05C11.2344 0.0097503 6.86731 -0.877375 2.93693 3.19792Z" fill="url(#paint0_linear)"/>
<path d="M23.4964 6.14712C16.3857 6.14712 9.63333 5.51458 7.0542 12.1337C5.98887 14.8676 6.14358 18.418 6.14358 23.5019C6.14358 27.963 6.00062 32.1558 7.0542 34.868C9.62745 41.4911 16.4346 40.8566 23.4925 40.8566C30.3016 40.8566 37.3222 41.5656 39.9327 34.868C41 32.1068 40.8433 28.6092 40.8433 23.5019C40.8433 16.7221 41.2173 12.3452 37.9293 9.05916C34.6001 5.72999 30.0979 6.14712 23.4885 6.14712H23.4964ZM21.9415 9.27458C36.7739 9.25108 38.6617 7.60216 37.6199 30.5088C37.2497 38.6104 31.081 37.7213 23.4983 37.7213C9.67249 37.7213 9.27495 37.3258 9.27495 23.494C9.27495 9.50175 10.3716 9.28241 21.9415 9.27066V9.27458ZM32.7593 12.1553C31.6097 12.1553 30.6776 13.0875 30.6776 14.237C30.6776 15.3865 31.6097 16.3187 32.7593 16.3187C33.9088 16.3187 34.841 15.3865 34.841 14.237C34.841 13.0875 33.9088 12.1553 32.7593 12.1553ZM23.4964 14.5895C18.5751 14.5895 14.586 18.5806 14.586 23.5019C14.586 28.4232 18.5751 32.4123 23.4964 32.4123C28.4177 32.4123 32.4048 28.4232 32.4048 23.5019C32.4048 18.5806 28.4177 14.5895 23.4964 14.5895ZM23.4964 17.717C31.1437 17.717 31.1535 29.2868 23.4964 29.2868C15.851 29.2868 15.8393 17.717 23.4964 17.717Z" fill="white"/>
</g>
<defs>
<linearGradient id="paint0_linear" x1="3.02706" y1="43.998" x2="46.7086" y2="6.19218" gradientUnits="userSpaceOnUse">
<stop stop-color="#FFDD55"/>
<stop offset="0.5" stop-color="#FF543E"/>
<stop offset="1" stop-color="#C837AB"/>
</linearGradient>
<clipPath id="clip0">
<rect width="47" height="47" fill="white"/>
</clipPath>
</defs>
</svg>
