<svg width="41" height="47" viewBox="0 0 41 47" fill="none" xmlns="http://www.w3.org/2000/svg">
<path fill-rule="evenodd" clip-rule="evenodd" d="M12.1914 18.9762C12.1664 18.9852 12.1392 18.9862 12.1136 18.9791C12.0879 18.9719 12.0652 18.957 12.0484 18.9363C10.467 16.8322 10.0697 13.2149 9.97298 11.8255C9.95311 11.558 9.65379 11.4076 9.41407 11.542C4.53088 14.2982 0 20.8181 0 27.113C0 37.9276 7.4751 47 20.3433 47C32.3996 47 40.6866 37.6494 40.6866 27.1144C40.6866 13.3294 30.8831 4.17044 22.1511 0.0301531C22.1001 0.00594483 22.0435 -0.00397472 21.9872 0.00143966C21.931 0.00685403 21.8773 0.0274018 21.8318 0.060918C21.7862 0.0944342 21.7505 0.139678 21.7284 0.191881C21.7063 0.244085 21.6986 0.301316 21.7061 0.357543C22.8306 7.78637 21.277 15.866 12.1914 18.9762Z" fill="url(#paint0_radial)"/>
<defs>
<radialGradient id="paint0_radial" cx="0" cy="0" r="1" gradientUnits="userSpaceOnUse" gradientTransform="translate(20.3437 47.0078) scale(43.4668 50.2118)">
<stop stop-color="#FF7854"/>
<stop offset="1" stop-color="#FD267D"/>
</radialGradient>
</defs>
</svg>
